<svg width="699" height="797" viewBox="0 0 699 797" fill="none" xmlns="http://www.w3.org/2000/svg">
<path d="M99.5451 178.735L43.9593 159.9C42.015 159.241 39.9982 160.686 39.9965 162.739L39.5037 759.576C39.5014 762.399 40.8238 765.06 43.0757 766.762L77.8239 793.035C79.5604 794.348 81.678 795.059 83.855 795.059H643.32C644.176 795.059 644.636 794.055 644.078 793.406L627.726 774.402C627.258 773.858 627 773.164 627 772.446V161.559C627 159.902 625.657 158.559 624 158.559H162.487C162.164 158.559 161.844 158.611 161.538 158.713L101.457 178.74C100.836 178.947 100.165 178.945 99.5451 178.735Z" fill="black" fill-opacity="0.1" stroke="white" stroke-width="2"/>
<path d="M65 151.059L8.71465 132.754C6.1365 131.916 3.48869 133.831 3.47764 136.542L1.04095 734.018C1.01836 739.557 5.50209 744.059 11.0409 744.059H129M65 151.059L129 125.559M65 151.059V667.559M129 125.559H597.5C598.052 125.559 598.5 126.006 598.5 126.559V734.059C598.5 739.581 594.023 744.059 588.5 744.059H129M129 125.559V744.059M65 667.559L129 744.059M65 667.559L4 740.059" stroke="#90A1B9" stroke-width="2"/>
<rect x="252" y="147.059" width="33" height="33" rx="16.5" fill="black"/>
<circle cx="268.5" cy="163.559" r="9.5" fill="white"/>
<rect x="431" y="147.059" width="33" height="33" rx="16.5" fill="black"/>
<circle cx="447.5" cy="163.559" r="9.5" fill="white"/>
<path d="M448.5 151.559C448.667 103.225 434.522 1.05768 357.5 1.05859C328.5 1.05894 273.7 29.5586 270.5 151.559" stroke="black" stroke-width="2"/>
<path d="M463.999 559.059C463.999 559.059 450.5 512.059 372.488 512.059C308.5 512.059 285 559.059 285 559.059" stroke="black" stroke-width="6" stroke-linecap="round"/>
<path d="M368.5 126.059C368.667 77.7253 330.499 -1.45918 277.5 1.05861C275.5 1.15363 193.7 4.0586 190.5 126.059" stroke="black" stroke-width="2"/>
<rect x="522" y="65.0586" width="177" height="177" rx="88.5" fill="black"/>
<path d="M610.053 188.181C604.835 188.159 600.377 186.783 596.678 184.053C592.979 181.323 590.15 177.349 588.19 172.131C586.231 166.913 585.251 160.627 585.251 153.273C585.251 145.942 586.231 139.678 588.19 134.482C590.172 129.286 593.012 125.323 596.711 122.593C600.432 119.863 604.879 118.498 610.053 118.498C615.227 118.498 619.664 119.874 623.363 122.626C627.061 125.356 629.891 129.319 631.85 134.515C633.832 139.689 634.822 145.942 634.822 153.273C634.822 160.649 633.843 166.946 631.883 172.164C629.924 177.36 627.094 181.334 623.396 184.086C619.697 186.816 615.249 188.181 610.053 188.181ZM610.053 179.364C614.633 179.364 618.211 177.129 620.787 172.659C623.385 168.19 624.684 161.728 624.684 153.273C624.684 147.659 624.089 142.914 622.9 139.039C621.733 135.142 620.049 132.192 617.847 130.189C615.668 128.163 613.07 127.15 610.053 127.15C605.496 127.15 601.918 129.396 599.32 133.887C596.722 138.379 595.412 144.841 595.39 153.273C595.39 158.91 595.973 163.676 597.14 167.574C598.329 171.449 600.013 174.388 602.193 176.391C604.373 178.373 606.993 179.364 610.053 179.364Z" fill="white"/>
</svg>
